<svg xmlns="http://www.w3.org/2000/svg" width="1371.994" height="1129.084" viewBox="0 0 1371.994 1129.084">
  <path id="Tracé_13" data-name="Tracé 13" d="M587.09,822.668c19.209,11.259,37.092,16.56,59.613,3.974,65.573-35.105,132.472-67.561,198.708-100.679,33.781-17.222,68.224-33.119,102-50.34,17.222-8.61,16.56-8.61,2.65-19.871-98.03-73.523-195.4-146.383-293.427-219.9-48.353-35.769-96.043-71.536-146.383-109.291,21.857-11.26,42.39-22.521,62.925-33.119A109.46,109.46,0,0,0,601,279.527c7.948-4.636,16.56-7.285,25.17-11.922,13.909-8.611,28.482-10.6,45.04-1.325,56.3,31.794,113.264,62.263,170.227,92.731,52.991,28.482,106.641,56.3,160.292,84.783,59.614,31.793,119.888,63.587,178.839,96.043,13.248,7.286,23.182,7.949,36.431,1.325,65.574-33.781,131.148-65.574,196.723-98.692,35.1-17.884,70.211-36.43,106.641-51.665,45.04-19.208,92.069-23.182,138.434-7.948,29.806,9.935,37.755,38.417,24.508,71.536-16.56,41.727-49.015,71.534-87.432,92.068-68.886,36.429-138.435,70.873-207.982,104.653-32.457,15.9-64.25,32.456-96.706,47.69-9.935,4.637-15.233,12.586-17.221,23.184-7.949,54.314-15.236,108.627-23.847,162.942-7.947,48.353-14.571,96.705-22.519,145.058-7.286,40.4-13.247,80.808-17.885,121.875-3.974,33.781-8.61,67.561-15.234,101.342-3.312,18.545-5.3,37.092-7.949,56.3-.662,5.961-.662,11.923-7.949,15.233-43.715,21.2-86.769,43.054-130.484,64.25-.663.662-1.987,0-4.637-.662V855.786c0-33.119,0-33.119-28.483-18.546-64.249,32.454-128.5,65.574-193.41,98.029-35.768,17.885-71.535,35.768-107.965,52.99-7.95,3.974-11.923,8.61-14.572,17.221-15.9,62.263-35.1,124.525-48.353,187.449-4.636,21.859-13.909,31.131-31.792,39.08-18.546,8.611-37.755,17.884-55.639,27.82-12.585,6.624-15.9,1.324-15.9-9.936,0-13.909-1.987-27.82-3.312-41.729-3.312-35.767-3.975-71.536-7.286-107.3-3.311-37.093-8.611-74.186-9.273-111.94,0-4.637-1.987-7.287-5.3-9.935-33.118-26.494-62.926-56.963-96.044-83.457-26.494-21.2-50.34-45.042-75.509-67.563-8.61-7.948-18.547-14.571-26.495-22.52-4.637-3.976-12.585-8.61.663-14.572,25.832-11.26,50.341-24.507,75.509-37.092,8.611-4.638,16.559-1.987,24.508,1.324,38.417,15.9,77.5,32.456,115.914,48.352,2.65,1.326,4.636,2.65,7.949,1.326C559.27,812.731,572.518,818.694,587.09,822.668Zm492.137,485.513c-.662,3.311-.662,6.624-1.324,9.936-1.987,15.233,3.972,15.9,15.9,9.273a361.276,361.276,0,0,1,42.389-21.2c13.911-5.3,17.224-15.235,18.548-28.482,3.974-27.158,7.948-54.976,11.922-82.134,4.638-33.118,9.937-65.574,14.573-98.693,4.637-27.819,9.936-55.638,13.247-83.457,3.313-26.495,9.935-52.99,12.585-80.146,3.313-30.469,7.949-60.939,12.585-90.745,7.95-49.677,13.91-99.354,22.521-149.031,1.325-6.624,2.65-13.91,9.935-15.9,32.455-9.272,58.951-31.13,89.419-44.377,76.835-34.444,152.345-72.86,227.191-111.94,35.768-18.546,68.224-43.054,82.133-84.121,5.963-16.559,3.313-21.858-12.585-25.17-34.443-7.286-68.223-4.637-100.017,9.273-61.6,25.832-119.888,58.289-179.5,88.095-26.494,13.247-54.313,25.17-79.482,41.729-17.222,11.261-36.431,19.209-55.639,27.157-8.611,3.974-19.872,10.6-27.821,8.611-17.885-5.3-34.443-13.91-51-22.521-35.767-19.871-70.873-41.067-107.3-60.275-55.639-29.806-111.278-58.288-166.917-88.095C800.37,378.22,730.821,340.466,661.273,302.047c-7.948-4.635-14.571-5.3-23.182-.662-19.872,10.6-41.066,21.2-62.925,31.794q226.526,169.9,453.057,339.792c-1.987,1.325-3.313,2.649-4.637,3.313-52.326,23.183-102,51.664-153.007,76.171-47.69,23.183-96.042,46.366-142.408,72.86-27.156,15.234-56.963,26.495-84.12,41.066-15.236,7.949-25.171,8.611-41.068,1.988-47.027-21.2-94.055-40.4-142.408-58.288-27.156-9.937-54.315-35.106-84.12-3.975,7.948,7.287,17.221,14.573,25.832,22.521,49.677,43.716,99.355,88.1,148.369,131.811,3.313,2.65,7.949,4.637,7.949,10.6.662,24.508,7.286,49.014,7.286,72.861,0,51.664,9.935,102,9.935,153.668,0,4.636,1.324,8.611,6.625,9.935,7.286,1.325,29.144-12.584,31.131-20.533,17.883-67.561,35.767-134.46,52.326-202.685,2.65-11.26,7.948-17.221,17.222-21.858,47.027-23.183,94.718-47.029,141.746-70.873C903.7,851.811,982.52,812.731,1062,773.652c4.637-2.649,9.274-6.623,15.9-3.312,0,2.65-.662,5.3-.662,8.611v517.968C1077.9,1300.234,1078.564,1304.206,1079.227,1308.181Z" transform="translate(-317.499 -260.179)" fill="#fcfdfd"/>
</svg>
