<?xml version="1.0" encoding="utf-8"?>
<!-- Generator: Adobe Illustrator 27.5.0, SVG Export Plug-In . SVG Version: 6.00 Build 0)  -->
<svg version="1.1" id="Calque_1" xmlns="http://www.w3.org/2000/svg" xmlns:xlink="http://www.w3.org/1999/xlink" x="0px" y="0px"
	 viewBox="0 0 50 30.9" style="enable-background:new 0 0 50 30.9;" xml:space="preserve">
<style type="text/css">
	.st0{fill:#FFFFFF;}
</style>
<path class="st0" d="M29.9,9.9c0.3,0.2,0.5,0.2,0.8,0.1c0.9-0.5,1.8-0.9,2.7-1.4c0.5-0.2,0.9-0.4,1.4-0.7c0.2-0.1,0.2-0.1,0-0.3
	c-1.3-1-2.6-2-4-3c-0.7-0.5-1.3-1-2-1.5c0.3-0.2,0.6-0.3,0.9-0.4c0.1,0,0.3-0.1,0.4-0.2c0.1-0.1,0.2-0.1,0.3-0.2
	c0.2-0.1,0.4-0.1,0.6,0c0.8,0.4,1.5,0.8,2.3,1.3c0.7,0.4,1.4,0.8,2.2,1.1C36.3,5.2,37.2,5.6,38,6c0.2,0.1,0.3,0.1,0.5,0
	c0.9-0.5,1.8-0.9,2.7-1.3c0.5-0.2,1-0.5,1.4-0.7c0.6-0.3,1.2-0.3,1.9-0.1c0.4,0.1,0.5,0.5,0.3,1c-0.2,0.6-0.7,1-1.2,1.2
	c-0.9,0.5-1.9,1-2.8,1.4c-0.4,0.2-0.9,0.4-1.3,0.6c-0.1,0.1-0.2,0.2-0.2,0.3c-0.1,0.7-0.2,1.5-0.3,2.2c-0.1,0.7-0.2,1.3-0.3,2
	c-0.1,0.5-0.2,1.1-0.2,1.7c-0.1,0.5-0.1,0.9-0.2,1.4c0,0.3-0.1,0.5-0.1,0.8c0,0.1,0,0.2-0.1,0.2c-0.6,0.3-1.2,0.6-1.8,0.9
	c0,0,0,0-0.1,0c0-0.1,0-0.1,0-0.2c0-2.3,0-4.7,0-7c0-0.4,0-0.4-0.4-0.3c-0.9,0.4-1.7,0.9-2.6,1.3c-0.5,0.2-1,0.5-1.5,0.7
	c-0.1,0.1-0.2,0.1-0.2,0.2c-0.2,0.8-0.5,1.7-0.7,2.5c-0.1,0.3-0.2,0.4-0.4,0.5c-0.3,0.1-0.5,0.2-0.8,0.4c-0.2,0.1-0.2,0-0.2-0.1
	c0-0.2,0-0.4,0-0.6c0-0.5-0.1-1-0.1-1.5c0-0.5-0.1-1-0.1-1.5c0-0.1,0-0.1-0.1-0.1c-0.4-0.4-0.9-0.8-1.3-1.1c-0.4-0.3-0.7-0.6-1-0.9
	c-0.1-0.1-0.3-0.2-0.4-0.3c-0.1-0.1-0.2-0.1,0-0.2c0.3-0.2,0.7-0.3,1-0.5c0.1-0.1,0.2,0,0.3,0c0.5,0.2,1,0.4,1.6,0.7
	c0,0,0.1,0,0.1,0C29.5,9.7,29.7,9.8,29.9,9.9z M36.6,16.4c0,0,0,0.1,0,0.1c0,0.2,0.1,0.2,0.2,0.1c0.2-0.1,0.4-0.2,0.6-0.3
	c0.2-0.1,0.2-0.2,0.3-0.4c0.1-0.4,0.1-0.7,0.2-1.1c0.1-0.4,0.1-0.9,0.2-1.3c0.1-0.4,0.1-0.8,0.2-1.1c0-0.4,0.1-0.7,0.2-1.1
	c0-0.4,0.1-0.8,0.2-1.2c0.1-0.7,0.2-1.3,0.3-2c0-0.1,0-0.2,0.1-0.2c0.4-0.1,0.8-0.4,1.2-0.6c1-0.5,2.1-1,3.1-1.5
	c0.5-0.3,0.9-0.6,1.1-1.1c0.1-0.2,0-0.3-0.2-0.3c-0.5-0.1-0.9-0.1-1.4,0.1c-0.8,0.3-1.6,0.8-2.4,1.2C40,5.8,39.6,6,39.3,6.2
	c-0.2,0.2-0.5,0.3-0.8,0.4c-0.1,0.1-0.3,0.1-0.4,0.1c-0.2-0.1-0.5-0.2-0.7-0.3c-0.5-0.3-1-0.6-1.5-0.8c-0.8-0.4-1.5-0.8-2.3-1.2
	c-1-0.5-1.9-1-2.8-1.5c-0.1-0.1-0.2-0.1-0.3,0c-0.3,0.1-0.6,0.3-0.9,0.4c2,1.5,4.1,3.1,6.1,4.6c0,0,0,0-0.1,0
	c-0.7,0.3-1.4,0.7-2.1,1c-0.6,0.3-1.3,0.6-1.9,1c-0.4,0.2-0.8,0.4-1.1,0.6c-0.2,0.1-0.3,0.1-0.6,0c-0.6-0.3-1.3-0.5-1.9-0.8
	c-0.4-0.1-0.7-0.5-1.1-0.1c0.1,0.1,0.2,0.2,0.3,0.3c0.7,0.6,1.3,1.2,2,1.8c0,0,0.1,0.1,0.1,0.1c0,0.3,0.1,0.7,0.1,1
	c0,0.7,0.1,1.4,0.1,2.1c0,0.1,0,0.1,0.1,0.1c0.1,0,0.4-0.2,0.4-0.3c0.2-0.9,0.5-1.8,0.7-2.7c0-0.2,0.1-0.2,0.2-0.3
	c0.6-0.3,1.3-0.6,1.9-1c1.1-0.5,2.1-1.1,3.2-1.6c0.1,0,0.1-0.1,0.2,0c0,0,0,0.1,0,0.1c0,2.3,0,4.7,0,7
	C36.6,16.3,36.6,16.4,36.6,16.4z"/>
<path class="st0" d="M43.8,24c0,0.7,0,1.4,0,2c0,0.4,0.1,0.7-0.1,1.1c-0.1,0.3-0.3,0.4-0.6,0.4c-0.2,0-0.4-0.3-0.5-0.5
	c0-0.2,0-0.4,0-0.6c0-1.2,0-2.3,0-3.5c0-0.2,0-0.5,0.1-0.7c0.3-0.4,0.9-0.3,1.1,0.1c0.7,1,1.4,2.1,2,3.2c0,0,0,0,0.1,0.1
	c0-0.1,0-0.2,0-0.2c0-0.9,0-1.7,0-2.5c0-0.1,0-0.2,0-0.3c0-0.3,0.3-0.5,0.6-0.5c0.3,0,0.5,0.3,0.5,0.6c0,1.4,0,2.7,0,4.1
	c0,0.1,0,0.2,0,0.3c-0.1,0.5-0.7,0.7-1.1,0.4c-0.3-0.2-0.4-0.5-0.6-0.7C45,25.8,44.4,24.9,43.8,24C43.8,24,43.8,24,43.8,24z"/>
<path class="st0" d="M23,26.8c-0.6-0.9-1.1-1.9-1.7-2.9c0,0.1,0,0.2,0,0.3c0,0.9,0,1.7,0,2.6c0,0.2,0,0.4-0.1,0.5
	c-0.2,0.2-0.4,0.3-0.6,0.2c-0.2,0-0.3-0.2-0.4-0.4c0-0.1,0-0.2,0-0.4c0-1.3,0-2.6,0-3.9c0-0.6,0.4-0.9,1-0.8c0.2,0,0.3,0.2,0.3,0.4
	c0.1,0.2,0.3,0.4,0.4,0.6c0.1,0.2,0.1,0.3,0.3,0.5c0.1,0.1,0.2,0.3,0.3,0.4c0,0,0,0,0,0c0,0.1,0.1,0.1,0.1,0.2c0,0,0,0.1,0,0.1
	c0.1,0.1,0.1,0.2,0.2,0.3c0.2,0.4,0.4,0.7,0.7,1.1c0-0.4,0-0.7,0.1-1c0-0.7,0-1.4,0-2.1c0-0.3,0.1-0.4,0.3-0.5
	c0.2-0.1,0.5,0,0.7,0.2c0.1,0.1,0.1,0.3,0.1,0.5c0,1.4,0,2.7,0,4.1c0,0.6-0.1,0.7-0.8,0.7c-0.3,0-0.5-0.2-0.7-0.5
	C23.1,26.9,23.1,26.9,23,26.8z"/>
<path class="st0" d="M36.6,24.8c0-0.8,0.1-1.5,0.6-2c0.4-0.5,0.9-0.7,1.5-0.8c0.6-0.1,1.1,0,1.6,0.2c0.7,0.3,1.1,0.7,1.3,1.4
	c0.1,0.4,0.2,0.8,0.2,1.2c-0.1,0.7-0.2,1.4-0.8,2c-0.3,0.3-0.8,0.5-1.2,0.6c-0.6,0.1-1.2,0.1-1.8-0.2c-0.7-0.3-1.1-0.8-1.3-1.5
	C36.7,25.4,36.6,25.1,36.6,24.8z M37.9,25.2c0,0.3,0.1,0.6,0.3,0.9c0.3,0.4,0.7,0.5,1.2,0.5c0.5,0,1-0.4,1.2-0.9
	c0.1-0.5,0.2-1,0-1.5c-0.3-1-0.9-1.3-1.8-1.1c-0.6,0.1-0.9,0.7-0.9,1.2C37.8,24.6,37.8,24.9,37.9,25.2z"/>
<path class="st0" d="M26.5,26.3c-0.2,0.3-0.2,0.7-0.4,1c-0.1,0.2-0.4,0.3-0.6,0.2c-0.2,0-0.4-0.3-0.4-0.5c0-0.3,0.2-0.6,0.3-0.9
	c0.3-0.7,0.6-1.5,0.8-2.2c0.2-0.5,0.4-1,0.7-1.5c0.1-0.3,0.4-0.4,0.7-0.4c0.3,0,0.6,0.1,0.7,0.5c0.3,0.6,0.5,1.2,0.7,1.8
	c0.3,0.8,0.7,1.6,1,2.4c0.1,0.2,0.1,0.5-0.1,0.7c-0.3,0.3-0.7,0.2-0.9-0.1c-0.2-0.3-0.3-0.6-0.4-0.9c0-0.1,0-0.2-0.1-0.2
	c-0.6,0-1.3,0-1.9,0C26.6,26.2,26.5,26.3,26.5,26.3z M28.3,25.3c-0.2-0.6-0.4-1.2-0.6-1.8c0,0,0-0.1-0.1-0.1c-0.1,0-0.1,0.1-0.1,0.1
	c-0.1,0.2-0.1,0.3-0.2,0.5c-0.1,0.4-0.3,0.7-0.4,1.1c0,0.1-0.1,0.2,0.1,0.2C27.4,25.3,27.8,25.3,28.3,25.3z"/>
<path class="st0" d="M32.5,26.7c0,0.2,0,0.4-0.1,0.6c-0.3,0.4-0.8,0.4-1-0.1c0,0,0-0.1-0.1-0.1c0-1.1,0-2.3,0-3.4
	c0-0.6,0-0.6-0.5-0.6c-0.2,0-0.4,0-0.6,0c-0.2,0-0.4-0.1-0.5-0.3c-0.1-0.2-0.1-0.4,0.1-0.5c0.1-0.2,0.3-0.2,0.5-0.2
	c1.1,0,2.3,0,3.4,0c0.2,0,0.4,0,0.5,0.3c0.1,0.2,0.1,0.4-0.1,0.6c-0.1,0.1-0.3,0.1-0.5,0.2c-0.3,0-0.7,0-1,0c-0.1,0,0,0.1,0,0.1
	C32.4,24.4,32.5,25.5,32.5,26.7z"/>
<path class="st0" d="M35.9,27.1c0,0.3-0.2,0.3-0.4,0.4c-0.4,0.1-0.8,0-0.8-0.4c0-1.4,0-2.7,0-4.1c0-0.1,0-0.3,0-0.4
	c0-0.3,0.2-0.5,0.5-0.5c0.4,0,0.5,0.1,0.6,0.4c0,0.1,0,0.2,0.1,0.3c0,0.1,0,0.2,0,0.2c0,1.2,0,2.5,0,3.7
	C35.9,26.8,35.9,26.9,35.9,27.1z"/>
<path class="st0" d="M19.3,25.2c-0.1,0.2-0.1,0.3-0.1,0.5c-0.1,0.7-0.5,1.1-1,1.4c-0.3,0.2-0.7,0.3-1.1,0.4c-0.4,0-0.9,0-1.3-0.1
	c-0.8-0.3-1.4-0.9-1.5-1.8c-0.1-0.6-0.1-1.3,0.1-1.9c0.2-0.6,0.5-1,1.1-1.3c0.5-0.3,1.1-0.3,1.7-0.3c0.4,0,0.9,0.2,1.2,0.4
	c0.7,0.4,0.9,1,1,1.8C19.3,24.6,19.3,24.9,19.3,25.2z M15.3,24.8c0,0.1,0,0.1,0,0.2c0,0.4,0.1,0.8,0.4,1.1c0.3,0.3,0.7,0.5,1.1,0.4
	c0.4,0,0.9-0.4,1.1-0.8c0.2-0.5,0.2-1.1,0.1-1.6c-0.1-0.6-0.4-0.9-1-1c-0.5-0.1-1-0.1-1.3,0.4C15.4,23.8,15.3,24.3,15.3,24.8z"/>
<path class="st0" d="M6.8,27c0,0.2-0.2,0.5-0.3,0.6c-0.3,0.1-0.6,0-0.7-0.3c-0.1-0.3-0.3-0.6-0.4-0.9c0-0.1-0.1-0.1-0.2-0.1
	c-0.6,0-1.2,0-1.8,0c-0.1,0-0.1,0-0.2,0.1c-0.1,0.3-0.2,0.6-0.3,0.8c-0.1,0.3-0.3,0.4-0.6,0.4c-0.2,0-0.4-0.3-0.5-0.5
	c0-0.1,0-0.3,0.1-0.4c0.2-0.5,0.3-1,0.6-1.6c0.3-0.8,0.6-1.6,0.9-2.4C3.6,22.4,3.7,22,4.2,22c0.5,0,0.8,0.2,0.9,0.6
	c0.3,0.7,0.6,1.5,0.9,2.2c0.3,0.6,0.5,1.3,0.7,1.9C6.8,26.8,6.8,26.9,6.8,27z M5,25.2c-0.2-0.6-0.4-1.2-0.6-1.8c0,0,0-0.1-0.1-0.1
	c0,0-0.1,0.1-0.1,0.1c-0.1,0.2-0.1,0.3-0.2,0.5c-0.1,0.4-0.3,0.8-0.4,1.2c0,0.1-0.1,0.1,0,0.1C4.1,25.3,4.5,25.3,5,25.2z"/>
<path class="st0" d="M9.1,26.1c0.2-0.6,0.4-1.3,0.6-1.9c0.2-0.6,0.4-1.2,0.6-1.9c0.1-0.3,0.3-0.4,0.5-0.4c0.3,0,0.5,0.2,0.6,0.5
	c0,0.1,0,0.2-0.1,0.3c-0.3,0.8-0.6,1.7-0.9,2.5c-0.2,0.5-0.4,1.1-0.6,1.6c-0.1,0.3-0.3,0.5-0.7,0.6c-0.3,0.1-0.7-0.1-0.8-0.4
	c-0.2-0.3-0.2-0.6-0.4-0.9c-0.3-0.8-0.6-1.7-0.9-2.5c-0.1-0.3-0.3-0.7-0.3-1c-0.1-0.2,0.1-0.5,0.4-0.6c0.2-0.1,0.6,0,0.7,0.2
	c0.2,0.4,0.3,0.9,0.5,1.4c0.2,0.7,0.5,1.4,0.7,2.1C9,25.9,9,26,9.1,26.1z"/>
<path class="st0" d="M13.3,27c0,0.1-0.1,0.2-0.1,0.3c-0.1,0.2-0.4,0.3-0.6,0.3c-0.3-0.1-0.4-0.2-0.4-0.5c0-0.1,0-0.2,0-0.3
	c0-1.4,0-2.7,0-4.1c0-0.3,0.2-0.6,0.4-0.6c0.2-0.1,0.5,0,0.7,0.2c0.1,0.2,0.1,0.4,0.1,0.6C13.3,24.2,13.3,25.6,13.3,27z"/>
<g>
	<path class="st0" d="M14.5,16c-3.9,0-6.9-1.1-8.4-2.5c-0.1-0.1-0.1-0.1-0.2-0.1H3.5c-0.2,0-0.4,0.2-0.3,0.4
		c0.6,1.1,1.6,2.1,3.1,2.9c2.2,1.2,5.1,1.8,8.1,1.8s5.9-0.7,8-1.8c1.5-0.8,2.5-1.8,3.1-2.9c0.1-0.2,0-0.4-0.3-0.4h-2.3
		c-0.1,0-0.2,0-0.2,0.1C21.4,14.9,18.3,16,14.5,16z"/>
</g>
</svg>
